<?xml version="1.0" encoding="UTF-8"?>
<svg width="700pt" height="700pt" version="1.1" viewBox="0 0 700 700" xmlns="http://www.w3.org/2000/svg">
 <g>
  <path d="m254.36 362.65 78.027 93.426c0.11719 0.14062 0.32813 0.21094 0.44141 0.375l48.23 57.633c24.035 28.746 59.312 45.242 96.762 45.242 29.609 0 58.379-10.523 81.105-29.633 53.293-44.871 60.293-124.88 15.562-178.36l-131.27-156.92-75.578-90.512c-0.11719-0.14062-0.32812-0.21094-0.44141-0.375l-48.23-57.633c-24.035-28.746-59.312-45.219-96.762-45.219-29.609 0-58.402 10.523-81.105 29.633-53.312 44.848-60.312 124.86-15.582 178.34zm-59.965-100.92 164.85-138.58 75.648 90.418 70.746 84.746-164.85 138.58-78.332-93.66zm352.5 253.68c-19.344 16.285-43.867 25.27-69.066 25.27-31.922 0-61.973-14.07-82.461-38.57l-42.605-50.914 164.92-138.65 42.488 50.797c38.148 45.574 32.176 113.8-13.277 152.07zm-393.77-470.82c19.32-16.285 43.867-25.246 69.066-25.246 31.922 0 61.973 14.047 82.461 38.547l42.605 50.914-164.92 138.65-42.488-50.801c-38.125-45.594-32.176-113.8 13.277-152.06z"/>
  <path d="m483.98 485.54c0 6.7148-5.4414 12.156-12.156 12.156-6.7148 0-12.156-5.4414-12.156-12.156 0-6.7148 5.4414-12.156 12.156-12.156 6.7148 0 12.156 5.4414 12.156 12.156"/>
  <path d="m460.02 458.2c0 6.7148-5.4414 12.156-12.156 12.156s-12.156-5.4414-12.156-12.156c0-6.7109 5.4414-12.156 12.156-12.156s12.156 5.4453 12.156 12.156"/>
  <path d="m537.23 438.9c0 6.7148-5.4414 12.16-12.156 12.16-6.7148 0-12.156-5.4453-12.156-12.16 0-6.7109 5.4414-12.156 12.156-12.156 6.7148 0 12.156 5.4453 12.156 12.156"/>
  <path d="m513.26 411.55c0 6.7109-5.4414 12.156-12.156 12.156-6.7109 0-12.156-5.4453-12.156-12.156 0-6.7148 5.4453-12.156 12.156-12.156 6.7148 0 12.156 5.4414 12.156 12.156"/>
  <path d="m527.78 481.83c0 6.7148-5.4453 12.156-12.156 12.156-6.7148 0-12.156-5.4414-12.156-12.156 0-6.7109 5.4414-12.156 12.156-12.156 6.7109 0 12.156 5.4453 12.156 12.156"/>
  <path d="m498.61 448.56c0 6.7148-5.4414 12.156-12.156 12.156s-12.156-5.4414-12.156-12.156c0-6.7109 5.4414-12.156 12.156-12.156s12.156 5.4453 12.156 12.156"/>
  <path d="m469.46 415.29c0 6.7148-5.4414 12.156-12.156 12.156-6.7109 0-12.156-5.4414-12.156-12.156 0-6.7109 5.4453-12.156 12.156-12.156 6.7148 0 12.156 5.4453 12.156 12.156"/>
  <path d="m203.51 149.4c0 6.7148-5.4414 12.156-12.156 12.156-6.7109 0-12.156-5.4414-12.156-12.156s5.4453-12.156 12.156-12.156c6.7148 0 12.156 5.4414 12.156 12.156"/>
  <path d="m179.55 122.06c0 6.7109-5.4453 12.156-12.156 12.156-6.7148 0-12.156-5.4453-12.156-12.156 0-6.7148 5.4414-12.16 12.156-12.16 6.7109 0 12.156 5.4453 12.156 12.16"/>
  <path d="m256.74 102.76c0 6.7109-5.4453 12.156-12.16 12.156-6.7109 0-12.156-5.4453-12.156-12.156 0-6.7148 5.4453-12.16 12.156-12.16 6.7148 0 12.16 5.4453 12.16 12.16"/>
  <path d="m232.77 75.414c0 6.7148-5.4414 12.156-12.156 12.156-6.7148 0-12.156-5.4414-12.156-12.156 0-6.7148 5.4414-12.156 12.156-12.156 6.7148 0 12.156 5.4414 12.156 12.156"/>
  <path d="m247.29 145.67c0 6.7109-5.4414 12.156-12.156 12.156-6.7109 0-12.156-5.4453-12.156-12.156 0-6.7148 5.4453-12.16 12.156-12.16 6.7148 0 12.156 5.4453 12.156 12.16"/>
  <path d="m218.14 112.4c0 6.7109-5.4453 12.156-12.156 12.156-6.7148 0-12.16-5.4453-12.16-12.156 0-6.7148 5.4453-12.16 12.16-12.16 6.7109 0 12.156 5.4453 12.156 12.16"/>
  <path d="m188.98 79.125c0 6.7109-5.4414 12.156-12.156 12.156-6.7148 0-12.156-5.4453-12.156-12.156 0-6.7148 5.4414-12.16 12.156-12.16 6.7148 0 12.156 5.4453 12.156 12.16"/>
 </g>
</svg>
