<?xml version="1.0" encoding="UTF-8"?>
<svg width="700pt" height="700pt" version="1.1" viewBox="0 0 700 700" xmlns="http://www.w3.org/2000/svg">
 <g>
  <path d="m587.74 479.92c1.4688-2.6602 1.5156-5.8555 0.21094-8.6094-1.3516-2.7305-3.9219-4.6211-6.9297-5.1094-15.797-2.4961-32.762-8.5391-34.742-11.434 0.09375-1.7031 0.83984-6.5781 1.9141-13.812 14.023-95.082 26.508-223.09-21.188-256.46l42.305-90.441c1.7266-3.7109 0.83984-8.1211-2.1719-10.852-21.281-19.344-99.027-82.484-206.06-82.484h-5.5547c-107.03 0-184.78 63.141-206.06 82.484-3.0039 2.7305-3.8906 7.1406-2.1641 10.852l43.352 92.703c-12.762 19.086-41.16 70.77-29.844 140.82 13.207 81.945 17.758 137.27-0.48828 159.79-7.3281 9.0312-29.469 16.309-41.695 18.762-3.6406 0.72266-6.4883 3.5234-7.2812 7.1641-0.79297 3.6172 0.62891 7.3516 3.6172 9.543 1.9844 1.4453 49.305 35.328 94.828 26.25 18.129-3.5938 33.18-13.672 45.266-29.309 39.434 33.672 83.512 39.316 107.21 39.316 27.883 0 62.113-0.39844 97.578-30.52 9.6133 10.805 29.352 28.887 55.441 30.59 1.3516 0.09375 2.6836 0.11719 4.0117 0.11719 20.184 0 39.527-10.059 57.586-29.984 2.6133-2.8945 3.1484-7.1172 1.3516-10.594-1.7969-3.4766-5.7148-5.4844-9.4492-4.9453-4.0117 0.53516-10.852 0.72266-17.359-0.1875 12.137-6.1133 26.953-16.59 36.309-33.645zm-232.21-460.53h5.5547c93.125 0 162.82 51.172 188.35 73.078l-47.859 102.36c-44.965-26.672-92.844-40.18-144.34-40.18-49.441 0-97.23 13.512-142.19 40.18l-47.859-102.36c25.527-21.91 95.223-73.078 188.35-73.078zm-95.27 480.29c-2.332-2.7305-44.59-54.227-20.883-157.29 30.449-2.8711 136.73-15.309 177.96-52.289 12.18 17.805 39.527 53.457 72.215 68.32 4.8086 18.387 21.023 96.809-34.953 150.1-0.023438 0.023437-0.070313 0.023437-0.09375 0.070312-30.355 29.562-57.375 31.852-92.215 31.852-22.445-0.027344-65.52-5.3477-102.04-40.766zm266.61 3.3828c-2.9883 0.67578-5.4609 2.7773-6.6016 5.625-1.168 2.8477-0.83984 6.0664 0.83984 8.6328 5.6719 8.6094 15.562 12.602 25.082 14.352-9.8008 6.5352-19.625 9.4023-29.586 8.8672-19.578-1.2383-35.488-16.078-43.098-24.641 63.98-68.156 33.996-163.12 32.621-167.23-0.86328-2.6602-2.8711-4.7852-5.4609-5.8086-39.504-15.445-73.711-72.172-74.059-72.754-1.6094-2.707-4.4805-4.4102-7.6289-4.5273-3.125-0.14062-6.1602 1.3281-7.9805 3.8984-25.223 35.352-138.41 51.613-179.88 54.902-3.9883 0.32813-7.3281 3.1484-8.3086 7.0234-25.223 100.19 6.6484 157.52 19.227 175.21-9.543 13.184-21.582 21.305-35.816 24.125-22.328 4.5039-46.504-4.4336-62.395-12.484 11.152-4.082 23.824-10.312 30.965-19.156 22.75-28.047 18.852-85.238 4.4102-174.51-8.6797-53.828 8.4453-95.527 20.906-117.55l2.4258 5.1797c1.1641 2.4297 3.2891 4.25 5.8789 5.0195 2.543 0.74609 5.3672 0.35156 7.6055-1.0977 44.543-28.422 92.027-42.816 140.7-42.816 0.35156 0.023438 2.332 0.023438 2.6602 0 49.141 0 96.648 14.398 141.19 42.816 1.4922 0.95703 3.2656 1.4688 5.0156 1.4688 0.86328 0 1.75-0.11719 2.5898-0.375 2.5898-0.74609 4.7148-2.5664 5.8555-5.0156l4.9688-10.617c19.578 17.035 34.789 73.359 10.688 236.65-1.2148 8.2148-1.9844 13.742-2.0781 15.68-0.67578 15.309 19.367 23.566 35.98 27.766-14.977 16.266-36.488 21.305-36.723 21.375z"/>
  <path d="m342.93 392.28c2.8945-4.2695 1.7734-10.078-2.4961-12.973-33.879-22.867-71.844-1.2852-73.43-0.32812-4.457 2.5898-5.9727 8.3086-3.3828 12.762 1.7266 2.9883 4.8516 4.6445 8.0742 4.6445 1.5859 0 3.2188-0.42188 4.6914-1.2617 0.30469-0.16406 29.285-16.777 53.621-0.32812 4.2422 2.875 10.027 1.7539 12.922-2.5156z"/>
  <path d="m455.75 384.25c-33.902-22.891-71.867-1.2852-73.453-0.32812-4.457 2.5898-5.9727 8.3086-3.3828 12.762 1.7266 2.9648 4.8516 4.6445 8.0742 4.6445 1.5859 0 3.2188-0.42188 4.6914-1.2617 0.32812-0.14062 29.352-16.73 53.645-0.32812 4.2227 2.8945 10.059 1.7734 12.949-2.4961 2.8906-4.2656 1.7461-10.121-2.5234-12.992z"/>
  <path d="m389.36 484.17c-0.32812 0.1875-29.609 16.59-53.668 0.35156-4.2227-2.8945-10.059-1.7734-12.949 2.4961-2.8945 4.2695-1.7734 10.078 2.4961 12.973 11.645 7.8633 23.777 10.477 34.719 10.477 20.953 0 37.684-9.5195 38.734-10.148 4.4336-2.5898 5.9492-8.2617 3.3828-12.715-2.543-4.4844-8.2578-6-12.715-3.4336z"/>
  <path d="m325.31 95.504h23.754v23.754c0 5.1562 4.1992 9.332 9.332 9.332 5.1328 0 9.332-4.1758 9.332-9.332l0.003906-23.754h23.73c5.1562 0 9.332-4.1758 9.332-9.332s-4.1992-9.332-9.332-9.332l-23.73-0.003906v-23.754c0-5.1562-4.1992-9.332-9.332-9.332-5.1328 0-9.332 4.1758-9.332 9.332v23.754h-23.754c-5.1562 0-9.332 4.1758-9.332 9.332-0.003906 5.1602 4.1719 9.3359 9.3281 9.3359z"/>
 </g>
</svg>
