<?xml version="1.0" encoding="UTF-8"?>
<svg width="700pt" height="700pt" version="1.1" viewBox="0 0 700 700" xmlns="http://www.w3.org/2000/svg">
 <g>
  <path d="m628.9 469.58c0-31.195-22.844-56.863-52.477-61.461v-107.61c0-1.0273-0.28125-1.9609-0.58203-2.8711-2.8711-23.055-22.215-41.02-45.805-41.02h-191.54c-28.094-26.648-65.684-43.168-107.05-43.539v-34.227h250.16c5.1562 0 9.332-4.1758 9.332-9.332s-4.1992-9.332-9.332-9.332l-250.18-0.003906v-119.7c0-0.88672-0.28125-1.7031-0.51172-2.5195 0.23438-0.79297 0.51172-1.5859 0.51172-2.4727 0.019531-5.1367-4.1328-9.3359-9.2891-9.3594l-90.977-0.39453h-0.046875c-5.1328 0-9.3086 4.1523-9.332 9.2852-0.046875 5.1562 4.1289 9.3555 9.2852 9.3789l81.691 0.35156v169.21c-79.52 8.7266-141.63 76.977-141.63 159.65 0 88.574 71.285 160.65 158.9 160.65 87.594 0 158.88-72.055 158.88-160.65 0-7.957-0.76953-15.703-1.8672-23.355h143.04c10.43 0 19.949-3.6172 27.719-9.4961v67.363c-29.609 4.5977-52.453 30.262-52.453 61.461 0 34.418 27.719 62.418 61.785 62.418 34.047-0.003906 61.789-28.004 61.789-62.422zm-398.91 46.016c-77.305 0-140.21-63.699-140.21-141.98 0-78.285 62.883-141.96 140.21-141.96 77.305 0 140.19 63.676 140.19 141.96 0 78.285-62.906 141.98-140.19 141.98zm300.02-184.01h-146.86c-5.5781-20.742-15.121-39.809-27.836-56.328h174.7c15.285 0 27.719 12.648 27.719 28.164 0.003906 15.516-12.41 28.164-27.719 28.164zm37.055 181.74c-23.777 0-43.121-19.625-43.121-43.75 0-20.859 14.488-38.289 33.762-42.652v42.652c0 5.1562 4.1992 9.332 9.332 9.332 5.1328 0 9.332-4.1758 9.332-9.332v-42.652c19.297 4.3398 33.785 21.793 33.785 42.652 0.054688 24.105-19.289 43.75-43.09 43.75z"/>
  <path d="m231.7 311.2c-34.066 0-61.785 28-61.785 62.395 0 34.441 27.719 62.441 61.785 62.441 34.09 0 61.809-28 61.809-62.441 0.027344-34.395-27.719-62.395-61.809-62.395zm0 106.17c-23.777 0-43.121-19.648-43.121-43.773s19.344-43.75 43.121-43.75c23.801 0 43.145 19.625 43.145 43.75 0 24.148-19.344 43.773-43.145 43.773z"/>
  <path d="m242.71 373.61c0 5.875-4.7656 10.641-10.641 10.641-5.8789 0-10.641-4.7656-10.641-10.641s4.7617-10.641 10.641-10.641c5.875 0 10.641 4.7656 10.641 10.641"/>
  <path d="m232.07 254.47c-65.684 0-119.14 53.457-119.14 119.14 0 65.684 53.457 119.14 119.14 119.14 65.684 0 119.14-53.457 119.14-119.14 0-65.684-53.457-119.14-119.14-119.14zm77 182.89-5.9727-5.9727c-3.6406-3.6406-9.5664-3.6406-13.207 0s-3.6406 9.543 0 13.184l5.9727 5.9961c-17.406 14.465-39.457 23.52-63.793 23.52-24.453 0-46.574-9.125-64.027-23.684l5.9727-5.9961c3.6406-3.6406 3.6406-9.5664-0.023437-13.207-3.5938-3.6172-9.543-3.6406-13.184 0l-5.9258 5.9258c-14.328-17.336-23.285-39.293-23.285-63.512 0-24.336 9.0547-46.387 23.52-63.793l5.6914 5.7148c1.8203 1.8203 4.2227 2.7305 6.6016 2.7305 2.3828 0 4.7852-0.93359 6.6055-2.7305 3.6641-3.6406 3.6641-9.5664 0.023438-13.207l-5.7148-5.7148c17.406-14.441 39.434-23.473 63.746-23.473s46.34 9.0312 63.723 23.449l-5.9023 5.9023c-3.6641 3.6406-3.6641 9.5664-0.023437 13.207 1.8203 1.8203 4.2227 2.7305 6.6016 2.7305s4.7852-0.91016 6.5781-2.7305l5.9258-5.9258c14.465 17.406 23.543 39.48 23.543 63.84 0.003907 24.312-9.0273 46.34-23.445 63.746z"/>
 </g>
</svg>
