<?xml version="1.0" standalone="no"?>
<!DOCTYPE svg PUBLIC "-//W3C//DTD SVG 20010904//EN"
 "http://www.w3.org/TR/2001/REC-SVG-20010904/DTD/svg10.dtd">
<svg version="1.0" xmlns="http://www.w3.org/2000/svg"
 width="1170.000000pt" height="1170.000000pt" viewBox="0 0 1170.000000 1170.000000"
 preserveAspectRatio="xMidYMid meet">
<metadata>
Created by potrace 1.14, written by Peter Selinger 2001-2017
</metadata>
<g transform="translate(0.000000,1170.000000) scale(0.100000,-0.100000)"
fill="#000000" stroke="none">
<path d="M4314 10871 c-2 -2 -23 -5 -46 -6 -24 -2 -44 -4 -45 -5 -2 -1 -12 -4
-23 -5 -11 -1 -21 -4 -22 -5 -2 -1 -14 -4 -28 -5 -14 -2 -36 -6 -50 -10 -14
-3 -32 -8 -40 -10 -8 -2 -15 -4 -15 -5 0 -2 -38 -11 -52 -12 -7 -1 -13 -6 -13
-11 0 -6 -3 -7 -7 -4 -3 4 -12 2 -20 -4 -7 -6 -13 -9 -13 -5 0 8 -180 -83
-202 -102 -10 -8 -18 -11 -18 -6 0 5 -4 4 -8 -1 -8 -12 -79 -65 -86 -65 -6 0
-139 -124 -180 -168 -64 -69 -76 -83 -77 -90 -3 -11 -82 -126 -92 -133 -5 -3
-9 -10 -9 -15 -1 -15 -31 -74 -38 -74 -4 0 -7 -6 -7 -12 0 -7 -10 -34 -21 -60
-12 -26 -22 -52 -22 -57 0 -6 -5 -11 -11 -11 -5 0 -7 -4 -4 -10 3 -5 1 -10 -5
-10 -6 0 -9 -4 -5 -10 3 -5 -1 -24 -8 -42 -8 -18 -17 -50 -21 -70 -4 -21 -11
-38 -16 -38 -4 0 -6 -8 -3 -19 3 -10 0 -22 -5 -25 -6 -3 -8 -15 -5 -26 3 -11
1 -20 -3 -20 -5 0 -10 -10 -11 -22 -5 -76 -16 -164 -22 -168 -3 -3 -7 -34 -7
-70 -1 -36 -2 -85 -3 -110 -3 -58 6 -240 13 -260 2 -8 7 -42 10 -75 4 -33 10
-74 14 -90 4 -17 8 -39 8 -50 -1 -11 2 -22 5 -25 4 -3 8 -21 10 -40 2 -19 6
-39 9 -45 4 -5 13 -37 20 -70 7 -33 17 -65 23 -72 5 -7 6 -17 2 -23 -3 -5 -1
-10 5 -10 7 0 10 -6 7 -14 -3 -8 -3 -16 1 -18 6 -3 41 -89 46 -113 1 -5 5 -16
10 -23 4 -7 6 -16 2 -19 -3 -3 2 -12 10 -20 8 -8 12 -19 9 -24 -4 -5 -1 -9 5
-9 6 0 9 -4 5 -9 -3 -5 -1 -12 5 -16 6 -4 8 -11 5 -16 -4 -5 -2 -9 3 -9 9 0
23 -31 26 -55 1 -5 7 -16 14 -23 7 -8 10 -18 7 -23 -4 -5 -2 -9 2 -9 9 0 42
-66 42 -83 1 -4 10 -17 21 -29 11 -12 20 -27 20 -34 0 -6 9 -23 21 -38 11 -14
18 -26 14 -26 -3 0 -1 -6 5 -12 16 -19 99 -148 95 -148 -2 0 7 -12 20 -26 14
-15 22 -30 19 -35 -3 -5 0 -9 6 -9 6 0 16 -12 23 -27 6 -15 27 -43 44 -63 18
-19 33 -38 33 -42 0 -4 13 -22 30 -40 17 -18 30 -39 30 -47 0 -8 3 -12 6 -8 3
3 32 -27 64 -66 142 -177 418 -445 655 -636 132 -108 368 -282 412 -305 15 -8
38 -24 50 -35 12 -12 24 -21 27 -21 3 0 44 -25 91 -55 46 -30 89 -55 94 -55 5
0 11 -4 13 -8 2 -5 64 -43 138 -85 74 -42 140 -81 146 -86 7 -5 15 -7 18 -4 3
4 6 1 6 -5 0 -7 3 -12 8 -11 15 2 52 -14 52 -23 0 -5 5 -6 10 -3 6 3 10 1 10
-4 0 -6 6 -11 14 -11 7 0 19 -7 26 -15 6 -8 15 -14 18 -14 16 2 52 -14 52 -23
0 -5 5 -6 10 -3 6 3 10 1 10 -5 0 -6 5 -8 10 -5 6 3 10 1 10 -5 0 -6 5 -8 10
-5 6 3 10 1 10 -5 0 -6 5 -8 10 -5 6 3 10 1 10 -6 0 -7 3 -9 7 -6 3 4 13 2 20
-5 27 -22 153 -27 153 -6 0 5 3 7 8 6 4 -1 50 20 102 47 52 27 98 48 103 47 4
-1 7 3 7 8 0 6 5 10 11 10 6 0 17 7 25 15 9 8 24 15 35 15 10 0 19 5 19 10 0
6 6 10 14 10 7 0 19 7 26 15 6 8 15 14 18 13 12 -2 60 21 67 32 7 12 44 29 58
26 5 0 13 7 18 17 6 9 14 15 20 12 5 -4 9 -1 9 5 0 6 4 9 9 6 5 -3 12 1 15 10
4 9 9 14 13 11 3 -4 17 3 31 13 13 11 31 20 38 20 8 0 14 5 14 10 0 6 17 18
38 28 20 9 46 25 56 35 11 9 25 17 32 17 7 0 14 4 16 8 2 4 55 43 118 86 282
192 530 396 761 626 171 170 255 260 324 349 22 28 43 51 47 51 5 0 8 6 8 13
0 7 12 26 28 43 29 32 132 179 132 188 0 3 18 29 40 58 22 29 40 56 40 60 0 4
13 26 28 50 16 24 42 69 58 101 15 31 32 57 36 57 4 0 8 9 8 19 0 11 7 27 16
35 8 9 13 16 9 16 -3 0 0 10 7 23 7 12 13 24 13 27 1 8 35 82 56 122 11 21 20
40 19 43 -2 15 13 55 21 55 5 0 6 7 3 15 -4 8 -1 15 6 15 6 0 9 4 6 8 -7 12
26 112 36 112 5 0 7 4 4 9 -3 5 3 34 14 65 10 31 17 56 15 56 -3 0 0 12 6 27
5 14 11 38 13 52 9 59 18 107 24 115 3 5 6 26 7 45 1 20 3 36 4 36 8 0 27 351
20 365 -1 3 -4 32 -6 65 -5 97 -12 152 -28 230 -4 17 -8 39 -9 50 -2 11 -6 27
-9 35 -10 29 -30 113 -30 126 0 8 -3 14 -7 14 -7 0 -34 75 -35 95 0 6 -6 16
-13 23 -7 8 -10 18 -7 23 4 5 1 9 -4 9 -6 0 -10 3 -9 8 1 4 -3 17 -10 28 -6
12 -8 24 -5 28 3 3 1 6 -6 6 -7 0 -9 5 -6 10 3 6 2 10 -2 10 -11 0 -47 60 -36
60 4 0 3 4 -2 8 -17 11 -57 72 -49 72 4 0 1 6 -7 13 -8 6 -34 37 -56 67 -50
66 -124 142 -195 201 -29 24 -54 47 -56 52 -2 4 -10 7 -18 7 -8 0 -17 7 -20
15 -4 8 -10 12 -15 9 -5 -3 -9 0 -9 5 0 6 -7 11 -15 11 -8 0 -15 4 -15 8 0 5
-16 14 -35 22 -19 8 -35 18 -35 22 0 5 -4 7 -9 4 -5 -3 -20 4 -35 15 -14 11
-26 18 -26 14 0 -3 -12 3 -27 12 -15 10 -28 17 -30 16 -1 -1 -17 3 -35 10 -18
6 -36 10 -40 9 -5 -1 -8 3 -8 9 0 6 -7 9 -15 6 -8 -4 -17 -2 -21 4 -3 6 -12 8
-19 5 -7 -2 -16 -2 -19 2 -8 8 -35 14 -63 14 -13 0 -23 3 -23 7 0 4 -10 8 -22
9 -13 0 -48 4 -78 7 -73 9 -260 9 -335 1 -33 -4 -75 -8 -92 -9 -18 -1 -33 -4
-33 -8 0 -4 -10 -7 -22 -7 -20 0 -51 -6 -68 -12 -3 -1 -9 -2 -14 -1 -4 1 -13
-2 -20 -7 -6 -5 -19 -8 -28 -7 -10 2 -18 0 -18 -4 0 -4 -6 -8 -12 -9 -31 -2
-73 -14 -85 -24 -7 -6 -13 -7 -13 -4 0 4 -10 1 -22 -6 -13 -7 -26 -13 -30 -14
-5 -1 -10 -3 -13 -4 -3 -1 -8 -3 -12 -5 -9 -2 -36 -13 -75 -29 -16 -6 -28 -14
-28 -18 0 -5 -3 -7 -7 -6 -5 1 -19 -3 -33 -9 -14 -6 -29 -12 -35 -13 -5 -1
-21 -10 -35 -19 -14 -10 -40 -23 -57 -30 -18 -8 -33 -18 -33 -23 0 -5 -4 -7
-9 -4 -5 3 -14 -1 -21 -9 -7 -8 -16 -15 -21 -15 -15 0 -139 -82 -139 -92 0 -5
-4 -7 -9 -4 -5 3 -23 -7 -40 -23 -16 -15 -32 -27 -34 -25 -5 5 -157 -116 -157
-126 0 -21 -55 1 -107 44 -32 25 -63 49 -68 53 -69 52 -85 63 -85 58 0 -4 -7
1 -16 9 -22 22 -104 78 -104 71 0 -3 -6 -1 -12 5 -23 19 -103 70 -111 70 -4 0
-25 11 -46 24 -21 14 -42 22 -45 19 -3 -4 -6 -1 -6 5 0 7 -4 12 -10 12 -10 0
-131 52 -163 70 -10 6 -22 8 -27 5 -4 -3 -10 0 -12 5 -2 6 -10 12 -18 13 -8 2
-19 5 -25 8 -5 4 -23 10 -40 14 -45 12 -45 12 -47 14 -2 2 -14 5 -28 8 -39 7
-55 11 -55 13 0 1 -11 4 -60 14 -5 1 -14 4 -20 7 -5 4 -18 5 -27 4 -10 -2 -18
1 -18 5 0 5 -15 7 -32 6 -18 -2 -37 0 -43 3 -16 10 -332 21 -341 12z"/>
<path d="M1236 7499 c-25 -20 -26 -24 -28 -137 l-2 -117 -6 120 -6 120 -2
-112 c-2 -100 -4 -113 -19 -114 -10 0 -2 -7 17 -14 l35 -13 -50 -1 c-27 -1
-67 -4 -87 -7 -48 -8 -48 -21 -9 -164 16 -57 28 -118 25 -135 -3 -20 -2 -24 4
-12 6 14 13 3 29 -48 12 -36 17 -63 12 -59 -5 3 -9 -2 -9 -10 0 -9 5 -15 11
-13 6 1 21 -26 33 -60 13 -34 19 -60 13 -56 -6 4 -8 0 -4 -11 4 -10 7 -23 8
-29 0 -7 4 -4 7 6 6 15 9 13 19 -13 6 -16 7 -28 2 -24 -5 3 -9 -2 -9 -11 0 -9
4 -14 9 -10 6 3 15 -4 21 -16 8 -15 9 -19 1 -15 -6 4 -11 0 -11 -9 0 -9 4 -14
10 -10 5 3 16 -8 25 -26 11 -20 12 -28 4 -23 -9 5 -10 2 -6 -10 4 -10 7 -25 8
-34 1 -10 4 -7 9 8 l8 25 2 -25 c2 -14 4 -34 5 -45 7 -74 6 -71 14 -50 6 14
13 0 29 -60 41 -153 74 -300 75 -335 1 -19 7 -35 14 -35 6 0 15 -4 20 -9 5 -5
2 -6 -6 -1 -9 5 -12 3 -9 -6 3 -8 10 -13 15 -12 6 1 23 -12 39 -30 16 -17 21
-25 12 -18 -22 16 -24 -1 -3 -19 8 -7 15 -9 15 -4 0 4 62 -53 138 -127 75 -75
181 -171 234 -213 54 -43 96 -82 95 -88 -1 -6 4 -13 12 -16 10 -3 11 0 5 9 -4
8 12 -2 37 -22 24 -20 44 -42 44 -49 0 -8 6 -15 14 -18 9 -3 11 0 6 9 -4 8 27
-20 69 -61 42 -41 76 -76 76 -79 0 -2 -9 4 -20 14 -11 10 -20 14 -20 8 0 -13
35 -45 42 -38 2 3 18 -10 34 -27 16 -18 21 -26 12 -19 -22 16 -24 -1 -3 -19 8
-7 15 -9 15 -4 0 5 31 -23 69 -60 39 -38 69 -74 68 -79 -1 -5 4 -12 12 -15 9
-3 11 0 7 7 -4 6 20 -6 54 -28 34 -22 76 -44 93 -50 18 -6 273 -60 567 -121
685 -142 735 -154 809 -184 70 -28 171 -97 216 -147 17 -18 22 -27 13 -20 -10
7 -18 9 -18 3 0 -12 25 -34 32 -27 3 3 11 -2 19 -12 12 -14 12 -15 0 -9 -9 6
-12 5 -9 -5 3 -8 10 -13 16 -12 5 1 16 -5 24 -14 9 -12 9 -15 1 -9 -19 11 -17
6 26 -84 24 -48 41 -74 43 -63 2 11 7 4 15 -20 6 -20 7 -35 2 -31 -5 3 -9 -2
-9 -10 0 -9 5 -15 12 -13 16 3 26 -40 22 -88 -3 -30 -2 -34 4 -15 7 20 11 8
26 -65 9 -49 22 -107 27 -127 l10 -38 1389 0 1389 0 10 38 c5 20 18 78 27 127
15 73 19 85 26 65 6 -19 7 -15 4 15 -4 46 6 91 21 88 6 -1 16 17 23 40 7 23
28 72 46 109 37 74 40 82 22 72 -10 -5 -10 -3 0 7 7 8 18 14 24 14 6 0 13 6
16 14 3 9 0 11 -9 5 -12 -6 -12 -5 0 9 8 10 16 15 19 12 7 -7 32 15 32 27 0 6
-8 4 -17 -3 -10 -7 -2 4 17 25 58 63 169 130 261 159 73 23 818 183 1177 252
133 26 185 46 258 96 26 18 44 26 39 19 -5 -8 -3 -11 6 -8 8 3 13 10 12 15 -1
5 29 41 68 79 38 37 69 65 69 60 0 -5 7 -3 15 4 21 18 19 35 -2 19 -10 -7 -5
1 11 19 16 17 32 30 34 27 7 -7 32 15 32 27 0 6 -8 5 -17 -3 -10 -7 9 15 42
50 33 35 137 124 230 199 94 74 232 196 308 271 75 74 137 131 137 127 0 -5 7
-3 15 4 21 18 19 35 -2 19 -10 -7 -5 1 11 18 16 18 33 31 39 30 5 -1 12 4 15
12 3 9 0 11 -9 6 -8 -5 -11 -4 -6 1 5 5 14 9 20 9 7 0 13 16 13 35 2 37 75
347 93 390 8 20 10 21 10 6 2 -38 12 -7 16 48 5 59 39 141 55 131 6 -4 10 1
10 10 0 9 -5 13 -11 9 -8 -4 -7 0 1 15 6 12 15 19 21 16 5 -4 9 1 9 10 0 9 -4
14 -9 11 -5 -4 -4 8 2 24 10 26 13 28 19 13 3 -10 7 -13 7 -6 1 6 4 19 8 29 4
11 2 15 -4 11 -6 -4 0 22 13 56 12 34 27 61 33 59 6 -1 11 5 11 14 0 8 -4 13
-9 10 -5 -4 0 23 12 59 16 51 23 62 29 48 6 -12 7 -8 4 12 -3 17 9 78 25 135
16 58 29 117 29 132 0 24 -4 27 -52 33 -29 5 -69 8 -88 7 l-35 0 35 13 c19 7
27 14 18 14 -16 1 -18 14 -20 114 l-2 112 -6 -120 -6 -120 -2 117 c-2 114 -3
117 -29 138 -43 34 -117 24 -187 -24 -30 -21 -57 -36 -59 -34 -7 5 -47 -33
-47 -45 0 -5 8 -3 18 4 15 13 16 12 3 -3 -7 -10 -17 -15 -22 -13 -4 3 -13 -3
-18 -14 -13 -24 -14 -34 -2 -27 5 3 0 -22 -10 -55 -10 -33 -19 -71 -19 -84 0
-13 -3 -31 -6 -40 -5 -13 -8 -14 -15 -3 -6 9 -9 6 -9 -10 0 -14 4 -21 11 -16
8 4 7 0 -1 -15 -6 -12 -15 -19 -21 -16 -5 4 -9 -1 -9 -10 0 -9 5 -13 10 -10 6
4 5 -5 -2 -20 -8 -19 -14 -22 -21 -13 -6 9 -7 5 -3 -12 3 -14 1 -32 -4 -40 -9
-13 -10 -13 -10 0 -1 9 -6 5 -15 -10 -17 -31 -19 -44 -3 -34 7 4 8 3 4 -5 -4
-6 -11 -9 -16 -6 -12 7 -53 -72 -45 -86 4 -5 1 -8 -7 -7 -8 2 -13 -8 -14 -27
-1 -16 -7 -43 -14 -60 -7 -16 -16 -61 -20 -100 -5 -38 -10 -79 -13 -90 -3 -11
-6 -23 -6 -27 -1 -5 -5 -8 -10 -8 -5 0 -3 19 4 43 7 23 14 70 17 104 l4 63
-31 10 c-41 14 -61 6 -111 -42 -23 -22 -46 -39 -50 -38 -5 1 -10 -4 -13 -11
-2 -8 1 -9 10 -4 8 5 11 4 6 -1 -5 -5 -14 -9 -19 -9 -6 0 -13 -6 -16 -14 -3
-8 0 -11 7 -7 6 4 4 -9 -6 -28 -9 -20 -20 -31 -23 -26 -4 6 -7 -9 -7 -32 0
-61 -22 -136 -34 -117 -5 8 -9 9 -9 2 0 -6 -3 -19 -7 -29 -5 -13 -3 -15 8 -9
8 5 11 5 6 -1 -5 -5 -14 -9 -20 -9 -5 0 -12 -6 -15 -14 -3 -9 0 -11 9 -5 12 7
12 5 1 -9 -8 -9 -19 -15 -24 -14 -6 1 -13 -4 -15 -11 -3 -7 -1 -12 4 -10 4 1
34 -4 66 -12 70 -16 58 -30 -26 -30 -157 0 -322 -61 -625 -228 -237 -131 -309
-165 -404 -187 -70 -16 -206 -19 -283 -5 -112 21 -379 30 -557 20 -368 -21
-611 -89 -834 -235 -47 -30 -82 -50 -78 -44 4 7 1 10 -7 7 -8 -3 -14 -10 -14
-16 0 -6 -37 -45 -82 -87 -46 -42 -83 -74 -83 -70 0 4 -7 2 -15 -5 -21 -18
-19 -35 3 -19 9 7 6 1 -7 -13 -13 -15 -28 -26 -34 -25 -5 1 -12 -4 -15 -12 -3
-9 0 -11 9 -6 12 7 12 5 1 -6 -7 -8 -18 -14 -24 -14 -6 0 -13 -6 -16 -14 -3
-9 0 -11 9 -6 8 5 11 4 6 -1 -5 -5 -14 -9 -19 -9 -6 0 -13 -6 -16 -14 -3 -9 0
-11 9 -6 8 5 11 4 6 -1 -5 -5 -14 -9 -19 -9 -6 0 -13 -6 -16 -14 -3 -9 0 -11
8 -6 9 5 11 4 6 -4 -4 -6 -11 -9 -16 -6 -5 3 -14 -3 -19 -14 -14 -26 -14 -34
1 -25 7 4 8 3 4 -5 -4 -6 -11 -9 -16 -6 -5 3 -14 -3 -19 -14 -14 -26 -14 -34
1 -25 7 4 8 3 4 -5 -4 -6 -11 -9 -16 -6 -12 8 -43 -53 -34 -67 4 -7 3 -8 -4
-4 -14 8 -86 -130 -78 -150 3 -8 0 -26 -6 -39 -9 -19 -14 -22 -21 -13 -6 9 -7
6 -4 -10 8 -33 -13 -88 -25 -70 -7 9 -8 6 -5 -11 6 -26 -9 -75 -21 -67 -4 3
-25 -46 -45 -108 -40 -121 -42 -130 -27 -121 5 3 5 -8 -2 -26 -8 -23 -13 -28
-20 -17 -6 9 -8 3 -6 -17 2 -20 -1 -29 -9 -28 -7 2 -14 -5 -15 -15 -1 -9 -2
-26 -3 -37 -5 -53 -4 -51 -16 -35 -8 12 -9 10 -5 -10 3 -14 1 -32 -4 -40 -9
-13 -10 -13 -11 0 0 10 -3 8 -9 -5 -12 -28 -12 -37 0 -30 6 4 5 -5 -2 -20 -8
-18 -14 -22 -20 -13 -5 9 -8 9 -8 1 0 -6 -3 -19 -7 -29 -4 -11 -3 -15 5 -10 6
3 3 -11 -6 -33 -9 -22 -20 -35 -23 -29 -4 5 -9 2 -13 -7 -8 -23 -8 -27 4 -20
6 4 5 -5 -2 -20 -7 -16 -14 -21 -18 -14 -5 6 -11 0 -18 -18 -5 -15 -13 -37
-18 -47 -5 -14 -4 -17 4 -12 9 6 9 1 0 -19 -6 -14 -14 -21 -18 -16 -3 6 -18
-19 -34 -54 -15 -36 -32 -65 -36 -65 -4 0 -23 34 -41 75 -18 41 -36 71 -39 65
-4 -6 -12 1 -18 15 -7 15 -8 24 -2 20 13 -8 13 -5 -1 34 -7 20 -14 28 -19 22
-4 -7 -11 -2 -18 14 -9 20 -9 25 0 19 8 -5 9 -2 5 10 -4 10 -7 21 -7 24 0 4
-4 2 -8 -5 -4 -7 -13 4 -24 28 -9 22 -12 36 -6 33 8 -5 9 -1 5 10 -4 10 -7 23
-7 29 0 8 -3 8 -8 -1 -6 -9 -12 -5 -20 13 -7 15 -8 24 -2 20 12 -7 12 2 0 30
-6 13 -9 15 -9 5 -1 -13 -2 -13 -11 0 -5 8 -7 26 -4 40 4 20 3 22 -5 10 -12
-16 -11 -18 -16 35 -1 11 -2 28 -3 37 -1 10 -8 17 -14 15 -9 -1 -12 8 -10 28
2 20 0 26 -6 17 -7 -11 -12 -6 -20 17 -7 18 -7 29 -2 26 15 -9 13 0 -27 121
-20 62 -41 111 -45 108 -10 -6 -30 44 -23 56 9 14 -6 60 -19 57 -7 -1 -10 10
-8 28 2 19 -1 25 -6 17 -11 -16 -34 31 -26 52 7 18 -64 159 -76 151 -5 -3 -14
4 -20 16 -8 15 -9 19 -1 15 14 -9 14 0 0 25 -5 11 -14 17 -19 14 -5 -3 -14 4
-20 16 -9 17 -9 20 0 14 8 -5 11 -3 8 6 -3 8 -10 14 -15 14 -6 0 -15 4 -20 9
-5 5 -3 6 5 2 15 -9 15 -1 1 25 -5 11 -14 17 -19 14 -5 -3 -12 0 -16 6 -5 8
-3 9 6 4 8 -5 11 -3 8 6 -3 8 -10 14 -15 14 -6 0 -15 4 -20 9 -5 5 -2 6 6 1 9
-5 12 -3 9 6 -3 8 -10 14 -15 14 -6 0 -15 4 -20 9 -5 5 -2 6 6 1 9 -5 12 -3 9
6 -3 8 -10 13 -16 12 -5 -1 -16 5 -24 15 -12 15 -11 16 5 3 9 -7 17 -9 17 -3
0 12 -25 34 -32 27 -3 -3 -13 5 -24 17 -10 12 -13 18 -6 14 17 -10 15 9 -3 24
-8 7 -15 9 -15 5 0 -4 -37 28 -82 70 -46 42 -83 81 -83 87 0 6 -6 13 -14 16
-9 3 -11 0 -6 -9 5 -7 -6 -3 -23 10 -18 12 -30 26 -27 31 3 5 -3 8 -12 8 -10
-1 -38 11 -63 27 -116 74 -317 145 -497 175 -235 40 -629 45 -853 10 -146 -22
-274 -8 -403 46 -34 14 -160 80 -279 146 -303 167 -468 228 -625 228 -84 0
-96 14 -26 30 32 8 62 13 66 12 5 -2 7 3 5 10 -3 7 -10 13 -16 13 -6 0 -17 6
-24 14 -11 11 -11 13 1 6 9 -5 12 -3 9 6 -3 8 -10 14 -15 14 -6 0 -15 4 -20 9
-5 6 -2 6 6 1 11 -6 13 -4 8 9 -4 10 -7 23 -7 29 0 7 -4 6 -9 -2 -12 -19 -34
56 -34 117 0 23 -3 38 -7 32 -3 -5 -14 6 -23 26 -10 19 -12 32 -6 28 7 -4 10
-1 7 7 -3 8 -10 14 -16 14 -5 0 -14 4 -19 9 -5 5 -2 6 6 1 9 -5 12 -4 10 4 -3
7 -8 12 -13 11 -4 -1 -27 16 -50 38 -50 48 -70 56 -111 42 l-31 -10 4 -63 c3
-34 10 -81 17 -104 7 -24 9 -43 4 -43 -5 0 -9 3 -10 8 0 4 -3 16 -6 27 -3 11
-8 52 -13 90 -4 39 -13 84 -20 100 -7 17 -13 44 -14 60 -1 19 -6 29 -14 27 -8
-1 -11 2 -7 7 8 14 -33 93 -45 86 -5 -3 -12 0 -16 6 -4 8 -3 9 4 5 14 -9 15 4
2 24 -9 13 -10 13 -10 0 -1 -9 -6 -5 -15 10 -7 14 -11 36 -9 50 4 17 3 21 -3
12 -7 -9 -13 -6 -21 13 -7 15 -8 24 -2 20 5 -3 10 1 10 10 0 9 -4 14 -9 10 -6
-3 -15 4 -21 16 -8 15 -9 19 -1 15 7 -5 11 2 11 16 0 16 -3 19 -9 10 -7 -11
-10 -10 -15 3 -3 9 -6 27 -6 40 0 13 -9 51 -19 84 -10 33 -15 58 -10 55 12 -7
11 3 -2 27 -5 11 -14 17 -18 14 -5 -2 -15 3 -22 13 -13 15 -12 16 4 3 24 -19
22 2 -3 24 -11 10 -20 15 -20 11 0 -4 -21 8 -47 26 -89 64 -158 76 -207 37z
m208 -420 c47 -52 147 -219 132 -219 -3 0 -18 24 -32 53 -40 79 -108 170 -166
223 -29 26 -39 37 -21 25 17 -12 57 -49 87 -82z m8878 55 c-58 -51 -126 -141
-166 -221 -14 -29 -29 -53 -32 -53 -3 0 14 37 38 83 30 58 65 105 119 160 42
42 80 77 85 77 5 0 -15 -21 -44 -46z m-8709 -384 c9 -30 14 -56 12 -59 -5 -4
-8 3 -30 79 -8 30 -11 50 -6 45 5 -6 16 -35 24 -65z m8491 18 c-21 -74 -24
-81 -29 -76 -2 2 2 26 10 53 20 65 23 75 29 75 3 0 -2 -24 -10 -52z m-8460
-104 c5 -14 4 -15 -9 -4 -12 10 -20 9 -42 -5 l-28 -18 19 21 c23 26 51 28 60
6z m8472 -6 l19 -21 -28 18 c-22 14 -30 15 -42 5 -13 -11 -14 -10 -9 4 9 22
37 20 60 -6z m-8397 -101 c49 -74 95 -157 86 -157 -2 0 -14 19 -26 43 -12 23
-46 77 -76 121 -31 43 -50 75 -44 72 6 -4 33 -40 60 -79z m8277 6 c-29 -43
-63 -97 -75 -120 -12 -24 -24 -43 -26 -43 -14 0 90 172 133 223 32 37 20 14
-32 -60z m-8119 -119 c-3 -4 0 -16 8 -28 9 -12 15 -44 15 -79 0 -66 10 -75 64
-57 25 8 41 8 53 1 15 -9 14 -10 -12 -11 -16 0 -55 -9 -85 -20 -30 -10 -56
-17 -58 -15 -2 2 5 6 15 9 17 5 18 13 12 74 -4 37 -11 79 -17 93 -10 24 -7 39
6 39 3 0 2 -3 -1 -6z m7951 -32 c-6 -15 -13 -57 -17 -94 -6 -61 -5 -69 12 -74
10 -3 17 -7 15 -9 -2 -2 -28 5 -58 15 -30 11 -68 20 -85 20 -26 1 -27 2 -12
11 12 7 28 7 53 -1 54 -18 64 -9 64 57 0 35 6 67 15 79 8 12 11 25 7 29 -4 5
-2 5 5 1 9 -5 10 -13 1 -34z m-7983 -92 c3 -5 1 -10 -4 -10 -6 0 -11 5 -11 10
0 6 2 10 4 10 3 0 8 -4 11 -10z m8025 0 c0 -5 -5 -10 -11 -10 -5 0 -7 5 -4 10
3 6 8 10 11 10 2 0 4 -4 4 -10z m-8070 -305 l25 -30 -27 24 c-18 16 -34 22
-48 18 -21 -5 -21 -5 -4 14 10 11 20 16 23 12 4 -5 17 -21 31 -38z m8154 26
c17 -19 17 -19 -4 -14 -14 4 -30 -2 -47 -18 -25 -23 -25 -22 3 13 16 21 29 38
30 38 0 0 9 -9 18 -19z m-8007 -121 c5 0 24 -13 43 -28 19 -16 82 -58 140 -94
58 -35 159 -104 225 -151 92 -67 144 -96 224 -127 143 -56 250 -109 356 -175
128 -81 197 -134 189 -147 -5 -7 -2 -9 7 -6 9 3 40 -18 79 -54 l65 -59 -52 36
c-29 20 -53 42 -53 48 0 6 -3 8 -6 5 -3 -3 -53 26 -112 66 -142 96 -247 152
-432 232 -112 48 -180 84 -252 136 -54 38 -98 72 -98 75 0 3 7 0 15 -7 9 -7
18 -10 21 -7 6 6 -133 107 -148 107 -16 0 -8 -7 47 -44 30 -20 55 -39 55 -41
0 -3 -34 17 -75 45 -42 28 -73 56 -69 61 3 6 -2 9 -12 7 -12 -2 -18 2 -16 10
1 7 -5 12 -15 10 -11 -2 -17 2 -15 11 2 9 -3 11 -13 7 -9 -3 -18 1 -21 9 -4 8
-10 13 -14 10 -5 -3 -13 3 -19 12 -5 10 -11 16 -14 13 -5 -6 -118 73 -138 96
-7 9 12 0 43 -20 31 -20 61 -36 65 -36z m7913 54 c-19 -22 -132 -100 -137 -94
-3 3 -9 -3 -14 -13 -6 -9 -14 -15 -19 -12 -4 3 -10 -2 -14 -10 -3 -9 -12 -12
-22 -8 -11 4 -15 3 -10 -5 4 -7 -34 -38 -99 -82 -58 -39 -105 -68 -105 -65 0
2 25 21 55 41 55 37 63 44 47 44 -15 0 -154 -101 -148 -107 3 -3 12 0 21 7 8
7 15 10 15 7 0 -3 -45 -37 -100 -76 -72 -52 -138 -88 -242 -132 -177 -75 -280
-130 -428 -228 -63 -41 -118 -75 -122 -73 -5 1 -8 -2 -8 -7 0 -5 -24 -26 -52
-46 -52 -37 -52 -37 -24 -6 17 17 34 31 39 31 4 0 19 13 33 30 16 19 31 27 41
23 11 -4 14 -2 9 5 -8 13 61 66 189 147 106 66 213 119 356 175 80 31 132 60
224 127 66 47 167 115 225 151 58 36 114 73 125 83 11 9 43 29 70 44 28 15 61
36 75 46 31 23 36 24 20 3z m-4482 -1039 c-3 -3 -9 2 -12 12 -6 14 -5 15 5 6
7 -7 10 -15 7 -18z m955 10 c-3 -9 -8 -14 -10 -11 -3 3 -2 9 2 15 9 16 15 13
8 -4z m-895 -160 c-3 -3 -9 2 -12 12 -6 14 -5 15 5 6 7 -7 10 -15 7 -18z m150
-430 c-3 -3 -9 2 -12 12 -6 14 -5 15 5 6 7 -7 10 -15 7 -18z m535 10 c-3 -9
-8 -14 -10 -11 -3 3 -2 9 2 15 9 16 15 13 8 -4z m-1779 -181 c3 -8 2 -12 -4
-9 -6 3 -10 10 -10 16 0 14 7 11 14 -7z m3017 -7 c-10 -9 -11 -8 -5 6 3 10 9
15 12 12 3 -3 0 -11 -7 -18z m-19 -49 c-8 -8 -9 -4 -5 13 4 13 8 18 11 10 2
-7 -1 -18 -6 -23z m-1524 -303 c-3 -3 -9 2 -12 12 -6 14 -5 15 5 6 7 -7 10
-15 7 -18z m75 10 c-3 -9 -8 -14 -10 -11 -3 3 -2 9 2 15 9 16 15 13 8 -4z"/>
<path d="M4054 2939 c-156 -20 -266 -128 -267 -263 -1 -141 73 -205 319 -276
127 -37 181 -64 200 -102 18 -35 18 -82 -1 -118 -52 -101 -276 -128 -362 -42
-27 27 -54 82 -47 94 3 5 -27 8 -67 8 l-72 0 7 -42 c15 -91 86 -171 186 -209
71 -27 210 -30 292 -6 115 34 195 126 205 235 14 154 -68 235 -307 302 -168
47 -202 67 -220 129 -28 98 74 182 210 173 84 -5 161 -57 176 -118 6 -22 11
-24 71 -24 l64 0 -7 38 c-28 152 -189 246 -380 221z"/>
<path d="M6085 2939 c-74 -12 -77 -13 -124 -37 -104 -55 -167 -130 -207 -249
-50 -150 -37 -346 33 -474 47 -88 149 -173 229 -194 55 -13 69 -15 130 -16
276 -3 455 251 411 585 -33 253 -238 421 -472 385z m179 -149 c129 -62 197
-245 161 -435 -21 -111 -77 -192 -161 -235 -64 -32 -168 -34 -234 -4 -132 60
-200 225 -172 416 20 135 76 218 176 263 66 29 165 27 230 -5z"/>
<path d="M7088 2945 c-2 -2 -21 -5 -43 -8 -124 -18 -232 -97 -289 -214 -58
-116 -73 -271 -42 -428 8 -39 40 -111 68 -152 42 -63 85 -100 157 -136 56 -27
77 -32 160 -35 184 -8 301 57 374 208 28 57 31 76 35 175 l4 110 -180 0 c-99
0 -184 -3 -187 -7 -12 -11 -11 -107 0 -111 6 -2 61 -3 124 -2 l113 0 -6 -44
c-19 -142 -160 -232 -312 -201 -149 31 -237 164 -235 354 1 138 25 209 97 282
60 62 117 83 211 79 98 -4 177 -60 219 -155 l18 -40 67 0 c74 0 72 -4 50 68
-6 19 -24 55 -40 80 -51 78 -106 120 -196 150 -52 18 -158 35 -167 27z"/>
<path d="M104 2455 l0 -475 66 0 66 0 0 208 0 207 237 1 237 0 1 -55 c0 -31 0
-125 0 -208 l1 -153 66 0 67 0 0 475 0 475 -67 0 -68 0 1 -199 c1 -110 -1
-203 -4 -208 -6 -9 -448 -10 -463 -1 -5 4 -9 93 -9 207 l1 201 -66 0 -66 0 0
-475z"/>
<path d="M1303 2898 c-15 -46 -71 -198 -131 -358 -71 -190 -202 -550 -202
-556 0 -2 31 -4 68 -4 l68 0 43 123 c24 67 49 127 56 132 7 6 84 10 185 10
l173 0 24 -70 c13 -39 26 -77 30 -85 3 -8 7 -17 8 -20 1 -3 7 -24 15 -47 l13
-43 69 0 c37 0 68 3 68 8 0 4 -9 32 -20 62 -12 30 -31 84 -44 120 -13 36 -81
220 -150 408 -69 189 -126 346 -126 348 0 2 -31 4 -68 4 -69 0 -69 0 -79 -32z
m155 -363 l60 -171 -138 0 -138 0 15 40 c8 23 37 104 64 181 65 185 60 175 69
145 4 -14 35 -102 68 -195z"/>
<path d="M1918 2923 c-2 -5 -4 -217 -3 -473 l1 -465 67 -3 67 -3 0 358 c1 358
1 358 20 333 11 -14 24 -30 30 -37 5 -7 10 -14 10 -17 0 -3 31 -49 69 -103 38
-54 129 -186 204 -293 74 -107 143 -205 152 -217 13 -19 25 -23 75 -23 33 0
60 3 61 8 0 4 1 217 2 475 l2 467 -66 0 -66 0 0 -352 c0 -194 -2 -353 -6 -353
-4 0 -99 133 -211 295 -112 162 -223 321 -245 353 l-41 57 -59 0 c-33 0 -61
-3 -63 -7z"/>
<path d="M2880 2456 l0 -476 180 0 c189 0 253 9 335 45 150 66 239 234 234
441 -5 226 -98 376 -274 440 -41 15 -89 19 -262 22 l-213 4 0 -476z m461 321
c67 -34 106 -81 135 -162 19 -52 22 -79 20 -171 -3 -145 -33 -220 -111 -280
-62 -47 -120 -61 -251 -60 l-119 1 -1 354 -1 353 136 -4 c126 -3 141 -6 192
-31z"/>
<path d="M4925 2878 c2 -29 3 -56 4 -60 1 -5 66 -8 145 -8 l143 0 1 -402 c0
-222 1 -409 1 -415 1 -9 21 -13 66 -13 l65 0 0 415 0 415 145 0 c80 0 145 3
146 8 0 4 1 31 2 60 l2 52 -361 0 -361 0 2 -52z"/>
<path d="M7685 2458 l0 -473 295 0 294 0 1 45 c1 25 -1 51 -3 58 -3 9 -58 12
-231 12 l-226 0 2 123 c0 67 2 133 2 148 l1 25 193 -1 c105 0 200 1 210 3 14
4 17 14 14 61 l-3 56 -201 1 c-112 0 -205 3 -209 7 -6 6 -8 142 -5 262 l1 30
222 0 223 0 2 58 1 57 -291 0 -292 0 0 -472z"/>
<path d="M8399 2893 c-9 -87 -16 -83 147 -83 l144 0 0 -415 0 -415 68 0 67 0
0 415 -1 415 146 0 146 0 0 60 1 60 -358 0 -357 0 -3 -37z"/>
<path d="M9270 2455 l0 -475 65 0 c36 0 65 3 66 8 1 4 2 97 3 207 l1 200 235
0 235 0 3 -207 2 -208 68 0 67 0 -2 458 c-1 251 -2 465 -2 475 -1 14 -11 17
-66 17 l-65 0 -2 -207 -3 -208 -232 0 c-128 0 -234 2 -234 5 -1 3 -2 95 -3
205 l-2 200 -67 3 -67 3 0 -476z"/>
<path d="M10220 2455 l0 -475 293 0 293 0 2 60 1 60 -230 0 -229 0 0 148 0
148 198 -1 c108 0 203 1 210 3 8 3 12 24 12 61 l0 56 -197 0 c-109 0 -204 1
-210 3 -10 3 -13 42 -13 148 l0 144 225 0 225 0 0 60 0 60 -290 0 -290 0 0
-475z"/>
<path d="M10985 2458 l0 -473 65 0 65 0 0 175 c0 96 3 177 7 180 4 3 51 5 105
5 l98 0 63 -115 c35 -63 79 -145 99 -182 l35 -68 80 0 c63 0 78 3 71 13 -6 6
-27 44 -48 82 -21 39 -64 118 -96 176 -33 58 -59 108 -59 111 0 2 22 19 50 37
70 45 112 131 111 227 0 103 -17 155 -69 211 -72 78 -135 93 -382 93 l-196 0
1 -472z m405 342 c73 -20 114 -84 112 -170 -1 -75 -34 -126 -97 -150 -40 -16
-274 -20 -282 -6 -4 6 -7 84 -8 173 l0 163 120 0 c66 0 136 -5 155 -10z"/>
<path d="M7088 1745 c-2 -1 -24 -5 -50 -8 -108 -13 -224 -101 -279 -212 -80
-163 -75 -405 11 -560 33 -61 107 -131 169 -162 51 -25 66 -28 166 -28 106 0
112 1 173 34 95 52 173 152 196 254 6 26 5 27 -32 27 -39 0 -40 -1 -61 -60
-17 -45 -34 -70 -76 -107 -69 -62 -120 -81 -210 -78 -195 6 -315 163 -316 412
-1 208 89 354 244 400 57 17 154 9 210 -17 60 -28 130 -106 153 -170 17 -48
19 -50 56 -50 37 0 38 1 32 28 -28 124 -127 235 -244 275 -42 14 -135 29 -142
22z"/>
<path d="M1899 1723 c-4 -40 -3 -927 2 -935 3 -5 21 -8 40 -6 l34 3 0 215 0
215 270 3 270 2 0 -220 0 -220 37 0 c21 0 38 3 39 8 0 4 1 216 1 472 l1 465
-39 3 -39 3 0 -208 c1 -114 -1 -213 -3 -220 -5 -16 -529 -16 -534 0 -3 7 -4
105 -3 220 l0 207 -37 0 c-21 0 -38 -3 -39 -7z"/>
<path d="M2841 1255 l1 -475 274 0 274 0 0 35 c0 29 -4 35 -22 36 -13 0 -119
1 -235 1 l-213 0 -1 27 c0 27 0 240 1 304 l0 37 215 0 215 0 0 38 0 37 -215
-2 -215 -3 0 23 c-1 32 -1 233 -1 294 l1 52 213 0 c116 0 220 0 230 0 13 1 17
10 17 36 l0 35 -269 0 -270 0 0 -475z"/>
<path d="M3829 1703 c-20 -51 -91 -248 -105 -288 -7 -22 -60 -170 -118 -330
-58 -159 -106 -293 -106 -297 0 -5 17 -8 39 -8 l38 0 33 93 c18 50 41 117 52
148 l19 55 195 1 c191 1 196 1 204 -20 5 -12 29 -78 54 -147 l44 -125 42 -3
c32 -2 41 0 38 10 -3 7 -65 177 -137 378 -73 201 -149 409 -168 463 l-36 97
-39 0 c-33 0 -40 -4 -49 -27z m111 -253 c21 -58 54 -149 73 -202 l35 -98 -170
0 c-98 0 -168 4 -166 9 2 5 39 111 83 235 92 259 75 253 145 56z"/>
<path d="M4410 1255 l0 -475 265 0 265 0 0 35 c0 26 -4 35 -17 36 -10 0 -111
1 -225 1 -153 -1 -208 3 -209 11 0 7 0 204 0 440 l1 427 -40 0 -40 0 0 -475z"/>
<path d="M4944 1701 c1 -16 4 -33 8 -37 4 -3 70 -6 148 -6 l140 1 1 -32 c0
-18 1 -215 1 -439 l1 -408 38 0 38 0 0 403 c0 221 0 419 1 439 l0 37 88 0 c48
0 115 0 149 0 l61 1 -1 35 -1 35 -337 0 -337 0 2 -29z"/>
<path d="M5804 1255 l0 -475 38 0 38 0 1 53 c0 28 0 127 0 220 l-1 167 270 0
270 0 0 -220 0 -220 40 0 39 0 1 475 0 475 -40 0 -40 0 0 -220 0 -220 -267 3
-268 2 0 217 0 218 -40 0 -41 0 0 -475z"/>
<path d="M7911 1708 c-13 -32 -24 -62 -25 -68 -2 -7 -84 -234 -117 -320 -50
-135 -189 -525 -189 -533 0 -4 17 -7 39 -7 l38 0 33 93 c17 50 41 117 53 149
l21 56 196 -1 195 -2 12 -35 c6 -19 29 -84 51 -145 l39 -110 41 -3 c41 -3 41
-3 33 25 -5 15 -16 46 -24 68 -9 22 -66 180 -127 350 -61 171 -128 354 -147
408 l-36 97 -39 0 c-31 0 -40 -5 -47 -22z m109 -258 c21 -58 54 -149 73 -202
l35 -98 -170 0 c-98 0 -168 4 -166 9 2 5 39 111 83 235 92 259 75 253 145 56z"/>
<path d="M8490 1256 l0 -476 40 0 39 0 0 168 c0 92 0 180 1 195 l0 28 131 -3
130 -3 33 -60 c18 -33 65 -120 105 -192 l72 -133 44 0 43 0 -50 93 c-28 50
-68 126 -91 167 -22 41 -48 90 -59 108 -10 19 -18 35 -16 37 2 1 22 14 46 29
136 85 164 305 53 430 -17 19 -95 68 -121 75 -8 2 -102 6 -207 8 l-193 5 0
-476z m377 388 c182 -51 182 -338 -1 -388 -31 -8 -100 -14 -173 -14 l-123 0 0
51 c-1 76 -1 329 -1 349 1 14 16 16 124 17 77 0 141 -5 174 -15z"/>
<path d="M9289 1575 c0 -85 0 -279 0 -430 0 -151 0 -295 0 -320 l1 -45 273 0
274 0 0 35 c0 19 -5 35 -11 36 -6 0 -111 1 -233 1 -198 0 -222 2 -225 16 -2
10 -4 91 -3 182 l0 165 215 5 215 5 3 33 4 32 -129 1 c-70 0 -168 2 -218 2
l-90 2 0 180 0 180 190 2 c105 1 208 2 230 2 40 1 41 2 42 36 l1 35 -269 0
-269 0 -1 -155z"/>
</g>
</svg>
