<?xml version="1.0" encoding="UTF-8"?>
<svg width="700pt" height="700pt" version="1.1" viewBox="0 0 700 700" xmlns="http://www.w3.org/2000/svg">
 <g>
  <path d="m525.35 246.47-99.68-74.387v-46.082h27.602c5.1562 0 9.332-4.1758 9.332-9.332v-105.82c0-5.1562-4.1992-9.332-9.332-9.332h-206.5c-5.1562 0-9.332 4.1758-9.332 9.332v105.82c0 5.1562 4.1992 9.332 9.332 9.332h20.602v46.293l-92.961 74.387c-6.8594 5.4844-10.805 13.672-10.805 22.445v260.56c0 15.867 12.926 28.77 28.77 28.77h315.28c15.867 0 28.77-12.902 28.77-28.77l0.003906-260.54c-0.023438-8.7969-3.9922-16.984-11.082-22.68zm-269.25-226.29h187.81l0.003907 87.148h-187.81zm261.61 509.51c0 5.5781-4.5273 10.125-10.102 10.125h-315.26c-5.5547 0-10.102-4.5273-10.102-10.125v-260.54c0-3.0781 1.375-5.9492 3.7812-7.8867l96.484-77.188c2.2148-1.7734 3.5-4.457 3.5-7.3047l-0.003907-50.699h120.94v50.703c0 2.9414 1.3984 5.7148 3.7578 7.4883l103.23 76.977c2.4258 1.9375 3.7812 4.8086 3.7812 7.8867z"/>
  <path d="m417.43 342.04h-26.156v-26.156c0-9.125-7.3984-16.52-16.52-16.52h-49.488c-9.125 0-16.52 7.3984-16.52 16.52v26.156h-26.184c-9.125 0-16.52 7.3984-16.52 16.52v49.512c0 9.125 7.3984 16.52 16.52 16.52h26.156v26.156c0 9.1016 7.3984 16.52 16.52 16.52h49.488c9.125 0 16.52-7.3984 16.52-16.52v-26.156h26.156c9.125 0 16.52-7.3984 16.52-16.52v-49.512c0.027344-9.0977-7.3906-16.52-16.492-16.52zm-2.1719 63.863h-33.344c-5.1562 0-9.332 4.1758-9.332 9.332v33.344h-45.172v-33.344c0-5.1562-4.1992-9.332-9.332-9.332h-33.344v-45.219h33.344c5.1562 0 9.332-4.1758 9.332-9.332v-33.32h45.172v33.344c0 5.1562 4.1992 9.332 9.332 9.332h33.344z"/>
  <path d="m292.27 32.34c-5.1562 0-9.332 4.1758-9.332 9.332v44.195c0 5.1562 4.1992 9.332 9.332 9.332 5.1328 0 9.332-4.1758 9.332-9.332v-44.195c0.023437-5.1562-4.1758-9.332-9.332-9.332z"/>
  <path d="m351.56 32.34c-5.1562 0-9.332 4.1758-9.332 9.332v44.195c0 5.1562 4.1992 9.332 9.332 9.332s9.332-4.1758 9.332-9.332l0.003907-44.195c0.023437-5.1562-4.1797-9.332-9.3359-9.332z"/>
  <path d="m410.88 32.34c-5.1562 0-9.332 4.1758-9.332 9.332v44.195c0 5.1562 4.1992 9.332 9.332 9.332s9.332-4.1758 9.332-9.332l0.003907-44.195c0.023437-5.1562-4.1758-9.332-9.3359-9.332z"/>
 </g>
</svg>
